<svg width="102" height="40" viewBox="0 0 102 40" fill="none" xmlns="http://www.w3.org/2000/svg">
<path d="M38.5723 37.3217V30.9804H37.5879V37.3217H38.5723ZM41.1211 37.3217V32.7162H41.1914L44.4478 37.3217H45.3354V30.9804H44.3774V35.5947H44.3071L41.0508 30.9804H40.1631V37.3217H41.1211ZM49.5366 37.3217C50.8901 37.3217 51.7031 36.6449 51.7031 35.5287C51.7031 34.6982 51.1318 34.0917 50.2749 33.9994V33.9247C50.8989 33.8193 51.3867 33.226 51.3867 32.5624C51.3867 31.5868 50.6704 30.9804 49.4795 30.9804H46.9307V37.3217H49.5366ZM47.915 31.7846H49.251C49.9805 31.7846 50.4067 32.1318 50.4067 32.7338C50.4067 33.3534 49.9541 33.6786 49.084 33.6786H47.915V31.7846ZM47.915 36.5175V34.4301H49.2817C50.209 34.4301 50.6968 34.7817 50.6968 35.4672C50.6968 36.1528 50.2266 36.5175 49.3389 36.5175H47.915ZM55.6714 30.8266C53.8521 30.8266 52.7095 32.1054 52.7095 34.1488C52.7095 36.1879 53.8257 37.4755 55.6714 37.4755C57.5039 37.4755 58.6289 36.1835 58.6289 34.1488C58.6289 32.1098 57.4951 30.8266 55.6714 30.8266ZM55.6714 31.6967C56.8711 31.6967 57.6226 32.6459 57.6226 34.1488C57.6226 35.6386 56.8755 36.6054 55.6714 36.6054C54.4497 36.6054 53.7158 35.6386 53.7158 34.1488C53.7158 32.6459 54.4717 31.6967 55.6714 31.6967ZM59.3232 37.3217H60.4131L61.9907 34.9355H62.0654L63.6211 37.3217H64.7725L62.6587 34.162L64.812 30.9804H63.7046L62.1357 33.4018H62.061L60.5186 30.9804H59.3452L61.4414 34.1313L59.3232 37.3217Z" fill="white"/>
<path d="M64.0742 11.5097L58.9961 4.47842C58.6055 3.94131 57.7754 3.50186 57.0918 3.50186H43.8594C43.1758 3.50186 42.3457 3.94131 41.9551 4.47842L36.877 11.5097C36.6328 11.8515 36.4375 12.4374 36.4375 12.8769V19.9081C36.4375 21.2265 37.4629 22.2519 38.7812 22.2519H62.2188C63.4883 22.2519 64.5625 21.2265 64.5625 19.9081V12.8769C64.5625 12.4374 64.3184 11.8515 64.0742 11.5097ZM43.2246 5.40616C43.3711 5.21085 43.6152 5.11319 43.8594 5.06436H57.0918C57.3359 5.06436 57.5801 5.21085 57.7266 5.40616L62.0234 11.3144H55.3828L53.8203 14.4394H47.1309L45.5684 11.3144H38.9277L43.2246 5.40616ZM63 13.6581V19.9081C63 20.3476 62.6094 20.6894 62.2188 20.6894H38.7812C38.3418 20.6894 38 20.3476 38 19.9081V13.6581C38 13.2675 38.3418 12.8769 38.7812 12.8769H44.6406L46.2031 16.0019H54.7969L56.3594 12.8769H62.2188C62.6094 12.8769 63 13.2675 63 13.6581Z" fill="white"/>
<path fill-rule="evenodd" clip-rule="evenodd" d="M63.5 15.2893C65.433 15.2893 67 13.7184 67 11.7805C67 9.84273 65.433 8.27182 63.5 8.27182C61.567 8.27182 60 9.84273 60 11.7805C60 13.7184 61.567 15.2893 63.5 15.2893Z" fill="#E96E4C"/>
</svg>
