<svg width="102" height="40" viewBox="0 0 102 40" fill="none" xmlns="http://www.w3.org/2000/svg">
<path d="M36.5815 36.0188C36.6519 37.1438 37.5967 37.8645 39.0029 37.8645C40.5059 37.8645 41.4463 37.1087 41.4463 35.909C41.4463 34.9597 40.9102 34.4368 39.6094 34.1248L38.9106 33.9534C38.0845 33.7513 37.7505 33.4876 37.7505 33.0262C37.7505 32.4329 38.269 32.0506 39.0469 32.0506C39.7852 32.0506 40.2949 32.4197 40.3872 33.0218H41.3452C41.2881 31.9627 40.3477 31.2156 39.0601 31.2156C37.6758 31.2156 36.7529 31.9627 36.7529 33.0789C36.7529 34.0017 37.2759 34.5467 38.4229 34.8235L39.2402 35.0213C40.0796 35.2234 40.4487 35.531 40.4487 36.0276C40.4487 36.6077 39.8687 37.0252 39.0776 37.0252C38.2295 37.0252 37.6406 36.6341 37.5571 36.0188H36.5815ZM46.8472 37.7107H47.8931L45.6035 31.3694H44.5444L42.2549 37.7107H43.2656L43.8501 35.9969H46.2671L46.8472 37.7107ZM45.0234 32.49H45.0981L46.0166 35.2058H44.1006L45.0234 32.49ZM51.29 37.7107L53.5444 31.3694H52.4985L50.7979 36.533H50.7231L49.0137 31.3694H47.9414L50.209 37.7107H51.29ZM58.6772 36.8626H55.6362V34.8894H58.5146V34.0721H55.6362V32.2176H58.6772V31.3694H54.6519V37.7107H58.6772V36.8626ZM60.1011 31.3694V37.7107H62.3906C64.2803 37.7107 65.3745 36.5418 65.3745 34.5247C65.3745 32.5296 64.2715 31.3694 62.3906 31.3694H60.1011ZM61.0854 32.2176H62.2808C63.5947 32.2176 64.3726 33.0745 64.3726 34.5379C64.3726 36.0144 63.6079 36.8626 62.2808 36.8626H61.0854V32.2176Z" fill="#949494"/>
<path d="M62.2188 9.16434L55.0898 8.13895L51.8672 1.64481C51.3301 0.521759 49.6699 0.472931 49.084 1.64481L45.9102 8.13895L38.7324 9.16434C37.4629 9.35965 36.9746 10.9221 37.9023 11.8499L43.0293 16.8792L41.8086 23.9593C41.6133 25.2288 42.9805 26.2054 44.1035 25.6194L50.5 22.2503L56.8477 25.6194C57.9707 26.2054 59.3379 25.2288 59.1426 23.9593L57.9219 16.8792L63.0488 11.8499C63.9766 10.9221 63.4883 9.35965 62.2188 9.16434ZM56.2129 16.2932L57.5801 24.2034L50.5 20.4925L43.3711 24.2034L44.7383 16.2932L38.9766 10.7268L46.9355 9.55496L50.5 2.3284L54.0156 9.55496L61.9746 10.7268L56.2129 16.2932Z" fill="#949494"/>
</svg>
