<svg width="102" height="40" viewBox="0 0 102 40" fill="none" xmlns="http://www.w3.org/2000/svg">
<path d="M39.561 35.8243C39.6313 36.9493 40.5762 37.67 41.9824 37.67C43.4854 37.67 44.4258 36.9142 44.4258 35.7144C44.4258 34.7652 43.8896 34.2423 42.5889 33.9303L41.8901 33.7589C41.064 33.5567 40.73 33.2931 40.73 32.8316C40.73 32.2384 41.2485 31.856 42.0264 31.856C42.7646 31.856 43.2744 32.2252 43.3667 32.8272H44.3247C44.2676 31.7682 43.3271 31.0211 42.0396 31.0211C40.6553 31.0211 39.7324 31.7682 39.7324 32.8844C39.7324 33.8072 40.2554 34.3521 41.4023 34.629L42.2197 34.8268C43.0591 35.0289 43.4282 35.3365 43.4282 35.8331C43.4282 36.4132 42.8481 36.8307 42.0571 36.8307C41.209 36.8307 40.6201 36.4395 40.5366 35.8243H39.561ZM49.7476 36.6681H46.7065V34.6949H49.585V33.8775H46.7065V32.023H49.7476V31.1749H45.7222V37.5162H49.7476V36.6681ZM52.1294 37.5162V32.9107H52.1997L55.4561 37.5162H56.3438V31.1749H55.3857V35.7892H55.3154L52.0591 31.1749H51.1714V37.5162H52.1294ZM60.5317 37.5162V32.023H62.5225V31.1749H57.5522V32.023H59.5474V37.5162H60.5317Z" fill="#949494"/>
<path d="M63.9766 10.1905L55.3828 1.20615C54.2109 -0.063385 52.0625 0.766693 52.0625 2.57333V6.87021C43.957 6.96786 36.4375 8.43271 36.4375 16.7823C36.4375 21.421 39.123 24.1065 40.7832 25.2784C41.9551 26.1573 43.6152 25.0343 43.1758 23.6183C41.3203 17.0265 44.4941 16.294 52.0625 16.2452V20.4933C52.0625 22.2999 54.2109 23.13 55.3828 21.8604L63.9766 12.8761C64.709 12.1436 64.709 10.9229 63.9766 10.1905ZM62.8535 11.8018L54.2598 20.7862C54.0156 21.0304 53.625 20.8839 53.625 20.4933V14.6339C45.2266 14.6339 39.1719 15.1222 41.7109 24.0089C39.9531 22.7393 38 20.3956 38 16.7823C38 8.96982 45.9102 8.38388 53.625 8.38388V2.52451C53.625 2.18271 54.0156 2.03622 54.2598 2.28036L62.8535 11.2647C62.9512 11.3136 63 11.4601 63 11.5089C63 11.6065 62.9512 11.753 62.8535 11.8018Z" fill="#949494"/>
</svg>
