<svg width="102" height="40" viewBox="0 0 102 40" fill="none" xmlns="http://www.w3.org/2000/svg">
<path d="M29.0625 36.2133C29.1328 37.3383 30.0776 38.059 31.4839 38.059C32.9868 38.059 33.9272 37.3032 33.9272 36.1035C33.9272 35.1543 33.3911 34.6313 32.0903 34.3193L31.3916 34.1479C30.5654 33.9458 30.2314 33.6821 30.2314 33.2207C30.2314 32.6274 30.75 32.2451 31.5278 32.2451C32.2661 32.2451 32.7759 32.6142 32.8682 33.2163H33.8262C33.769 32.1572 32.8286 31.4101 31.541 31.4101C30.1567 31.4101 29.2339 32.1572 29.2339 33.2734C29.2339 34.1963 29.7568 34.7412 30.9038 35.018L31.7212 35.2158C32.5605 35.4179 32.9297 35.7255 32.9297 36.2221C32.9297 36.8022 32.3496 37.2197 31.5586 37.2197C30.7104 37.2197 30.1216 36.8286 30.0381 36.2133H29.0625ZM39.249 37.0571H36.208V35.0839H39.0864V34.2666H36.208V32.4121H39.249V31.5639H35.2236V37.9052H39.249V37.0571ZM43.2656 37.9052V32.4121H45.2563V31.5639H40.2861V32.4121H42.2812V37.9052H43.2656ZM49.0576 37.9052V32.4121H51.0483V31.5639H46.0781V32.4121H48.0732V37.9052H49.0576ZM53.2412 37.9052V31.5639H52.2568V37.9052H53.2412ZM55.79 37.9052V33.2998H55.8604L59.1167 37.9052H60.0044V31.5639H59.0464V36.1782H58.9761L55.7197 31.5639H54.832V37.9052H55.79ZM67.0093 35.4091V34.6225H64.4077V35.4179H66.0425V35.5586C66.0337 36.5297 65.3218 37.1845 64.2847 37.1845C63.0938 37.1845 62.3467 36.2485 62.3467 34.728C62.3467 33.2295 63.0894 32.2846 64.2627 32.2846C65.1284 32.2846 65.7305 32.7109 65.9766 33.4975H66.9653C66.75 32.2187 65.7041 31.4101 64.2627 31.4101C62.4873 31.4101 61.3403 32.7153 61.3403 34.7324C61.3403 36.7758 62.4741 38.059 64.2715 38.059C65.9326 38.059 67.0093 37.0175 67.0093 35.4091ZM68.0684 36.2133C68.1387 37.3383 69.0835 38.059 70.4897 38.059C71.9927 38.059 72.9331 37.3032 72.9331 36.1035C72.9331 35.1543 72.397 34.6313 71.0962 34.3193L70.3975 34.1479C69.5713 33.9458 69.2373 33.6821 69.2373 33.2207C69.2373 32.6274 69.7559 32.2451 70.5337 32.2451C71.272 32.2451 71.7817 32.6142 71.874 33.2163H72.832C72.7749 32.1572 71.8345 31.4101 70.5469 31.4101C69.1626 31.4101 68.2397 32.1572 68.2397 33.2734C68.2397 34.1963 68.7627 34.7412 69.9097 35.018L70.7271 35.2158C71.5664 35.4179 71.9355 35.7255 71.9355 36.2221C71.9355 36.8022 71.3555 37.2197 70.5645 37.2197C69.7163 37.2197 69.1274 36.8286 69.0439 36.2133H68.0684Z" fill="#949494"/>
<path d="M61.5352 15.6089L59.9727 14.6811C59.9727 14.3393 60.0215 13.8022 60.0215 13.4604C60.0215 13.1674 59.9727 12.6303 59.9727 12.2885L61.5352 11.3608C62.0234 11.1167 62.2188 10.5307 62.0723 10.0424C61.5352 8.18698 60.5586 6.52682 59.2891 5.15964C58.8984 4.76901 58.3125 4.67136 57.8242 4.96432L56.2617 5.89206C55.7246 5.45261 54.7969 4.9155 54.1621 4.67136V2.86472C54.1621 2.27878 53.8203 1.83932 53.2832 1.69284C51.4277 1.25339 49.5234 1.25339 47.668 1.69284C47.1309 1.83932 46.7891 2.27878 46.7891 2.86472V4.67136C46.1543 4.9155 45.2266 5.45261 44.6895 5.89206L43.127 4.96432C42.6387 4.67136 42.0527 4.76901 41.6621 5.15964C40.3926 6.52682 39.416 8.18698 38.8789 10.0424C38.7324 10.5307 38.9277 11.1167 39.416 11.3608L40.9785 12.2885C40.9785 12.6303 40.9297 13.1674 40.9297 13.4604C40.9297 13.8022 40.9785 14.3393 40.9785 14.6811L39.416 15.6089C38.9277 15.853 38.7324 16.4389 38.8789 16.9272C39.416 18.7827 40.3926 20.4428 41.6621 21.81C42.0527 22.2007 42.6387 22.2983 43.127 22.0053L44.6895 21.0776C45.2266 21.5171 46.1543 22.0542 46.7891 22.2983V24.1049C46.7891 24.6909 47.1309 25.1303 47.668 25.2768C49.5234 25.7163 51.4277 25.7163 53.2832 25.2768C53.8203 25.1303 54.1621 24.6909 54.1621 24.1049V22.2983C54.7969 22.0542 55.7246 21.5171 56.2617 21.0776L57.8242 22.0053C58.3125 22.2983 58.8984 22.2007 59.2891 21.81C60.5586 20.4428 61.5352 18.7827 62.0723 16.9272C62.2188 16.4389 62.0234 15.853 61.5352 15.6089ZM58.3613 20.4917L56.0664 19.1733C54.748 20.3452 54.3086 20.5893 52.5996 21.2241V23.812C52.0137 23.9585 51.0859 24.0561 50.5 24.0561C49.8652 24.0561 48.9375 23.9585 48.3516 23.812V21.2241C46.6914 20.6382 46.2031 20.3452 44.8848 19.1733L42.5898 20.4917C41.6621 19.4174 40.9297 18.1479 40.4414 16.7807L42.7363 15.5112C42.3945 13.7534 42.3945 13.2163 42.7363 11.4585L40.4414 10.1889C40.9297 8.82175 41.6621 7.55222 42.5898 6.478L44.8848 7.79636C46.2031 6.62448 46.6914 6.33151 48.3516 5.74557V3.15768C48.9375 3.0112 49.8652 2.91354 50.5 2.91354C51.0859 2.91354 52.0137 3.0112 52.5996 3.15768V5.74557C54.2598 6.33151 54.748 6.62448 56.0664 7.79636L58.3613 6.478C59.2891 7.55222 60.0215 8.82175 60.5098 10.1889L58.2148 11.4585C58.5566 13.2163 58.5566 13.7534 58.2148 15.5112L60.5098 16.7807C60.0215 18.1479 59.2891 19.4174 58.3613 20.4917ZM50.5 8.77292C47.9121 8.77292 45.8125 10.9214 45.8125 13.4604C45.8125 16.0483 47.9121 18.1479 50.5 18.1479C53.0391 18.1479 55.1875 16.0483 55.1875 13.4604C55.1875 10.9214 53.0391 8.77292 50.5 8.77292ZM50.5 16.5854C48.7422 16.5854 47.375 15.2182 47.375 13.4604C47.375 11.7514 48.7422 10.3354 50.5 10.3354C52.209 10.3354 53.625 11.7514 53.625 13.4604C53.625 15.2182 52.209 16.5854 50.5 16.5854Z" fill="#949494"/>
</svg>
